# xmcd
#
# Track frame offsets:
# 150
# 18952
# 36067
# 61950
# 82872
# 99902
# 115200
# 143982
# 163442
#
# Disc length: 2514 seconds
#
#
# Revision: 12
# Processed by: cddbd v1.5.2PL0 Copyright (c) Steve Scherf et al.
# Submitted via: FreeRIP 2.21 
#
DISCID=6c09d009
DTITLE=Robben Ford - Talk To Your Daughter
DYEAR=1988
DGENRE=Blues
TTITLE0=Talk To Your Daughter
TTITLE1=Wild About You (Can't Hold Out Much Longer)
TTITLE2=Help The Poor
TTITLE3=Ain't Got Nothin' But The Blues
TTITLE4=Born Under A Bad Sign
TTITLE5=I Got Over It
TTITLE6=Revelation
TTITLE7=Getaway
TTITLE8=Can't Let Her Go
EXTD=
EXTT0=
EXTT1=
EXTT2=
EXTT3=
EXTT4=
EXTT5=
EXTT6=
EXTT7=
EXTT8=
PLAYORDER=
